<svg xmlns="http://www.w3.org/2000/svg" xmlns:xlink="http://www.w3.org/1999/xlink" version="1.1" x="0px" y="0px" viewBox="0 0 100 125" enable-background="new 0 0 100 100" xml:space="preserve"><path d="M29.719,0c-8.17,0-14.818,6.648-14.818,14.819c0,8.171,6.647,14.818,14.818,14.818c8.171,0,14.819-6.647,14.819-14.818  C44.538,6.648,37.89,0,29.719,0z M29.719,27.638c-7.068,0-12.818-5.75-12.818-12.818C16.901,7.75,22.651,2,29.719,2  c7.068,0,12.819,5.75,12.819,12.819C42.538,21.887,36.787,27.638,29.719,27.638z"/><rect x="23.521" y="11.489" width="2.156" height="2"/><rect x="33.762" y="11.489" width="2.156" height="2"/><path d="M27.349,19.344l-1.437,1.392c1.008,1.04,2.36,1.612,3.807,1.612c0,0,0,0,0.001,0c1.447,0,2.799-0.573,3.806-1.612  l-1.437-1.392C30.835,20.639,28.604,20.639,27.349,19.344z"/><path d="M29.719,35.182c-8.171,0-14.818,6.647-14.818,14.819c0,8.169,6.647,14.815,14.818,14.815s14.819-6.646,14.819-14.815  C44.538,41.83,37.89,35.182,29.719,35.182z M29.719,62.816c-7.068,0-12.818-5.749-12.818-12.815c0-7.068,5.75-12.819,12.818-12.819  c7.068,0,12.819,5.75,12.819,12.819C42.538,57.067,36.787,62.816,29.719,62.816z"/><rect x="23.521" y="46.673" width="2.156" height="2"/><rect x="33.762" y="46.673" width="2.156" height="2"/><rect x="26.621" y="54.214" width="6.196" height="2"/><path d="M29.719,70.362c-8.171,0-14.818,6.647-14.818,14.818C14.9,93.353,21.548,100,29.719,100s14.819-6.647,14.819-14.819  C44.538,77.01,37.89,70.362,29.719,70.362z M29.719,98C22.651,98,16.9,92.249,16.9,85.181s5.75-12.818,12.818-12.818  c7.068,0,12.819,5.75,12.819,12.818S36.787,98,29.719,98z"/><rect x="23.521" y="81.851" width="2.156" height="2"/><rect x="33.762" y="81.851" width="2.156" height="2"/><path d="M29.719,89.402c-1.447,0-2.8,0.573-3.807,1.614l1.437,1.391c0.628-0.648,1.47-1.005,2.371-1.005h0  c0.901,0,1.742,0.357,2.369,1.005l1.438-1.391C32.52,89.976,31.167,89.402,29.719,89.402C29.72,89.402,29.72,89.402,29.719,89.402z"/><path d="M60.735,2.637v24.366H85.1V2.637H60.735z M83.1,25.003H62.735V4.637H83.1V25.003z"/><path d="M60.735,62.185H85.1V37.816H60.735V62.185z M62.735,39.816H83.1v20.369H62.735V39.816z"/><path d="M60.735,97.361H85.1V73H60.735V97.361z M62.735,75H83.1v20.361H62.735V75z"/><polygon points="72.736,52.475 67.993,49.978 67.062,51.747 73.367,55.066 79.129,46.803 77.488,45.659 "/><text x="0" y="115" fill="#000000" font-size="5px" font-weight="bold" font-family="'Helvetica Neue', Helvetica, Arial-Unicode, Arial, Sans-serif">Created by Srinivas Agra</text><text x="0" y="120" fill="#000000" font-size="5px" font-weight="bold" font-family="'Helvetica Neue', Helvetica, Arial-Unicode, Arial, Sans-serif">from the Noun Project</text></svg>